<svg width="32" height="32" fill="none" xmlns="http://www.w3.org/2000/svg"><path d="M16 .64C7.517.64.64 7.517.64 16S7.517 31.36 16 31.36 31.36 24.483 31.36 16 24.483.64 16 .64zm5.907 17.33s1.359 1.34 1.693 1.963c.01.012.014.025.018.032.136.229.168.406.1.539-.112.22-.496.33-.627.34h-2.4c-.166 0-.515-.044-.937-.335-.325-.227-.645-.6-.957-.963-.466-.541-.869-1.008-1.275-1.008a.488.488 0 00-.152.023c-.308.1-.701.538-.701 1.706 0 .365-.288.575-.491.575h-1.1c-.374 0-2.324-.132-4.052-1.954-2.116-2.232-4.02-6.709-4.036-6.75-.12-.29.128-.445.399-.445h2.424c.323 0 .429.197.502.37.087.204.403 1.012.923 1.92.844 1.482 1.36 2.084 1.775 2.084a.48.48 0 00.222-.058c.541-.3.44-2.228.416-2.628 0-.075-.001-.863-.278-1.24-.199-.274-.536-.378-.741-.416a.88.88 0 01.318-.27c.372-.186 1.04-.213 1.704-.213h.37c.72.01.906.055 1.166.121.528.127.54.467.493 1.634-.014.33-.029.705-.029 1.147 0 .096-.004.198-.004.307-.016.594-.036 1.267.384 1.544a.345.345 0 00.182.053c.146 0 .584 0 1.771-2.037a15.54 15.54 0 00.952-2.038c.024-.042.095-.17.178-.22a.426.426 0 01.198-.046h2.85c.31 0 .523.046.563.166.07.19-.013.772-1.314 2.533l-.58.767c-1.18 1.545-1.18 1.624.073 2.796z" fill="#4A76A8"/></svg>