<svg width="64" height="64" fill="none" xmlns="http://www.w3.org/2000/svg"><path d="M33.023 9.614c-11.706 0-21.196 9.49-21.196 21.195 0 11.706 9.49 21.195 21.196 21.195 11.705 0 21.195-9.49 21.195-21.195 0-11.706-9.49-21.195-21.195-21.195zm0 37.277c-8.868 0-16.083-7.214-16.083-16.082s7.215-16.082 16.082-16.082c8.868 0 16.083 7.214 16.083 16.082S41.89 46.891 33.023 46.891z" fill="#F1A22C" fill-opacity=".4"/><path d="M33.023 19.037c-6.491 0-11.772 5.281-11.772 11.772 0 6.49 5.28 11.771 11.771 11.771 6.491 0 11.772-5.28 11.772-11.771 0-6.491-5.28-11.772-11.771-11.772z" fill="#F1A22C" fill-opacity=".4"/><path d="M62.664 32.586V6.83a.579.579 0 00-1.04-.35 24.377 24.377 0 00-4.953 14.729v9.422c0 1.08.877 1.957 1.957 1.957h.816c-.804 8.305-1.336 19.921-1.336 21.281 0 2.143 1.32 3.88 2.946 3.88 1.627 0 2.946-1.737 2.946-3.88 0-1.36-.531-12.978-1.336-21.283zM8.552 27.48a5.632 5.632 0 002.72-4.823l-.808-13.203a.954.954 0 00-1.905.106l.526 10.589a1.078 1.078 0 01-2.156 0L6.667 9.564a1.031 1.031 0 00-2.062 0L4.343 20.15a1.078 1.078 0 01-2.155 0L2.713 9.56a.954.954 0 00-1.905-.106L0 22.657a5.632 5.632 0 002.72 4.823 3.187 3.187 0 011.516 3.078c-.92 8.294-1.546 21.836-1.546 23.311 0 2.143 1.32 3.88 2.946 3.88 1.627 0 2.946-1.737 2.946-3.88 0-1.475-.625-15.017-1.546-23.311a3.189 3.189 0 011.516-3.078z" fill="#F1A22C"/></svg>