<?xml version="1.0" encoding="UTF-8"?>
<svg xmlns="http://www.w3.org/2000/svg" xmlns:xlink="http://www.w3.org/1999/xlink" width="40pt" height="40pt" viewBox="0 0 40 40" version="1.1">
<g id="surface1">
<path style=" stroke:none;fill-rule:nonzero;fill:rgb(55.686275%,14.117647%,66.666667%);fill-opacity:1;" d="M 38.589844 23.15625 C 39.785156 13.109375 38.019531 6.769531 34.832031 3.898438 C 29.691406 -1 12.320312 -1.726562 6.167969 4.117188 C 3.402344 6.976562 2.429688 11.171875 2.324219 16.363281 C 2.214844 21.558594 2.089844 31.292969 11.160156 33.933594 L 11.167969 33.933594 L 11.160156 37.964844 C 11.160156 37.964844 11.097656 39.597656 12.140625 39.925781 C 13.332031 40.3125 13.875 39.554688 17.585938 35.121094 C 23.792969 35.660156 28.558594 34.425781 29.101562 34.246094 C 30.351562 33.824219 37.445312 32.886719 38.589844 23.15625 Z M 18.195312 32.285156 C 18.195312 32.285156 14.269531 37.183594 13.046875 38.453125 C 12.648438 38.867188 12.207031 38.828125 12.214844 38.007812 C 12.214844 37.46875 12.246094 31.316406 12.246094 31.316406 C 4.558594 29.113281 5.011719 20.824219 5.09375 16.488281 C 5.175781 12.152344 5.96875 8.601562 8.308594 6.210938 C 13.707031 1.148438 28.9375 2.28125 32.816406 5.925781 C 37.558594 10.132812 35.871094 22.011719 35.882812 22.417969 C 34.90625 30.539062 29.160156 31.054688 28.101562 31.40625 C 27.652344 31.558594 23.460938 32.636719 18.195312 32.285156 Z M 18.195312 32.285156 "/>
<path style=" stroke:none;fill-rule:nonzero;fill:rgb(55.686275%,14.117647%,66.666667%);fill-opacity:1;" d="M 20.371094 7.160156 C 19.726562 7.160156 19.726562 8.160156 20.371094 8.171875 C 25.347656 8.207031 29.449219 11.679688 29.492188 18.042969 C 29.492188 18.714844 30.476562 18.707031 30.46875 18.035156 L 30.464844 18.035156 C 30.414062 11.175781 25.9375 7.199219 20.371094 7.160156 Z M 20.371094 7.160156 "/>
<path style=" stroke:none;fill-rule:nonzero;fill:rgb(55.686275%,14.117647%,66.666667%);fill-opacity:1;" d="M 26.917969 16.988281 C 26.902344 17.652344 27.886719 17.683594 27.894531 17.011719 C 27.976562 13.230469 25.644531 10.113281 21.261719 9.785156 C 20.621094 9.738281 20.554688 10.75 21.191406 10.796875 C 24.992188 11.082031 26.996094 13.675781 26.917969 16.988281 Z M 26.917969 16.988281 "/>
<path style=" stroke:none;fill-rule:nonzero;fill:rgb(55.686275%,14.117647%,66.666667%);fill-opacity:1;" d="M 25.867188 21.289062 C 25.046875 20.8125 24.207031 21.109375 23.859375 21.578125 L 23.136719 22.515625 C 22.765625 22.992188 22.078125 22.929688 22.078125 22.929688 C 17.054688 21.601562 15.710938 16.34375 15.710938 16.34375 C 15.710938 16.34375 15.648438 15.632812 16.109375 15.25 L 17.015625 14.5 C 17.46875 14.140625 17.757812 13.273438 17.296875 12.421875 C 16.0625 10.195312 15.234375 9.425781 14.8125 8.835938 C 14.367188 8.28125 13.703125 8.15625 13.007812 8.53125 L 12.992188 8.53125 C 11.550781 9.375 9.972656 10.953125 10.476562 12.578125 C 11.339844 14.292969 12.921875 19.753906 17.96875 23.878906 C 20.339844 25.832031 24.09375 27.832031 25.6875 28.292969 L 25.703125 28.316406 C 27.273438 28.839844 28.800781 27.199219 29.613281 25.714844 L 29.613281 25.703125 C 29.976562 24.984375 29.855469 24.304688 29.328125 23.859375 C 28.390625 22.945312 26.976562 21.9375 25.867188 21.289062 Z M 25.867188 21.289062 "/>
<path style=" stroke:none;fill-rule:nonzero;fill:rgb(55.686275%,14.117647%,66.666667%);fill-opacity:1;" d="M 21.949219 13.507812 C 23.550781 13.601562 24.328125 14.4375 24.410156 16.15625 C 24.441406 16.828125 25.414062 16.78125 25.386719 16.109375 C 25.277344 13.863281 24.109375 12.613281 22 12.5 C 21.359375 12.460938 21.300781 13.46875 21.949219 13.507812 Z M 21.949219 13.507812 "/>
</g>
</svg>
