<?xml version="1.0" encoding="UTF-8"?>
<svg xmlns="http://www.w3.org/2000/svg" xmlns:xlink="http://www.w3.org/1999/xlink" width="40pt" height="40pt" viewBox="0 0 40 40" version="1.1">
<g id="surface1">
<path style=" stroke:none;fill-rule:nonzero;fill:rgb(1.176471%,60.784314%,89.803922%);fill-opacity:1;" d="M 40 20 C 40 31.046875 31.046875 40 20 40 C 8.953125 40 0 31.046875 0 20 C 0 8.953125 8.953125 0 20 0 C 31.046875 0 40 8.953125 40 20 Z M 40 20 "/>
<path style=" stroke:none;fill-rule:nonzero;fill:rgb(100%,100%,100%);fill-opacity:1;" d="M 9.152344 19.566406 L 28.433594 12.132812 C 29.328125 11.808594 30.113281 12.351562 29.820312 13.703125 L 29.824219 13.703125 L 26.539062 29.171875 C 26.296875 30.265625 25.644531 30.535156 24.734375 30.015625 L 19.734375 26.332031 L 17.320312 28.65625 C 17.054688 28.921875 16.828125 29.148438 16.3125 29.148438 L 16.667969 24.058594 L 25.933594 15.6875 C 26.339844 15.332031 25.84375 15.132812 25.3125 15.484375 L 13.863281 22.695312 L 8.925781 21.15625 C 7.851562 20.816406 7.828125 20.082031 9.152344 19.566406 Z M 9.152344 19.566406 "/>
</g>
</svg>
