<svg width="60" height="61" viewBox="0 0 60 61" fill="none" xmlns="http://www.w3.org/2000/svg">
<g clip-path="url(#clip0)">
<path d="M30 7.58423C19.3382 7.58423 10.6641 16.2583 10.6641 26.9202V40.9827C10.6641 40.9964 10.6716 41.0075 10.6718 41.0211C12.144 39.9093 13.955 39.2249 15.9375 39.2249H44.0625C46.045 39.2249 47.856 39.9093 49.3282 41.0211C49.3284 41.0076 49.3359 40.9964 49.3359 40.9827V26.9202C49.3359 16.2583 40.6618 7.58423 30 7.58423ZM42.3047 30.4358C42.3047 31.4074 41.5185 32.1936 40.5469 32.1936H19.4531C18.4815 32.1936 17.6953 31.4074 17.6953 30.4358V26.9202C17.6953 20.1361 23.2159 14.6155 30 14.6155C36.7841 14.6155 42.3047 20.1361 42.3047 26.9202V30.4358Z" fill="#F1A22C"/>
<path d="M30 18.1311C25.1539 18.1311 21.2109 22.0741 21.2109 26.9202V28.678H38.7891V26.9202C38.7891 22.0741 34.8461 18.1311 30 18.1311Z" fill="#F1A22C"/>
<path opacity="0.4" d="M0 37.4669V48.0138C0 52.2578 3.14168 55.8082 7.14844 56.6249V28.8557C3.14168 29.6724 0 33.2228 0 37.4669Z" fill="#F1A22C"/>
<path opacity="0.4" d="M52.8516 28.8557V56.6249C56.8583 55.8082 60 52.2578 60 48.0138V37.4669C60 33.2228 56.8583 29.6724 52.8516 28.8557Z" fill="#F1A22C"/>
<path d="M44.0625 42.7405H15.9375C13.0296 42.7405 10.6641 45.106 10.6641 48.0139V55.0452C10.6641 57.9531 13.0296 60.3186 15.9375 60.3186H44.0625C46.9704 60.3186 49.3359 57.9531 49.3359 55.0452V48.0139C49.3359 45.106 46.9704 42.7405 44.0625 42.7405ZM44.0625 49.7717H42.3047V51.5295C42.3047 52.5011 41.5185 53.2874 40.5469 53.2874C39.5753 53.2874 38.7891 52.5011 38.7891 51.5295V49.7717H15.9375C14.9659 49.7717 14.1797 48.9855 14.1797 48.0139C14.1797 47.0423 14.9659 46.2561 15.9375 46.2561H44.0625C45.0341 46.2561 45.8203 47.0423 45.8203 48.0139C45.8203 48.9855 45.0341 49.7717 44.0625 49.7717Z" fill="#F1A22C"/>
<path opacity="0.4" d="M15.9375 0.318604H12.4219C11.4511 0.318604 10.6641 1.22259 10.6641 2.1936V14.7981C12.4596 11.9447 14.8595 9.51642 17.6953 7.69509V2.1936C17.6953 1.22259 16.9083 0.318604 15.9375 0.318604Z" fill="#F1A22C"/>
<path opacity="0.4" d="M47.5781 0.318604H44.0625C43.0917 0.318604 42.3047 1.22259 42.3047 2.1936V7.69521C45.1405 9.51653 47.5404 11.9447 49.3359 14.7981V2.1936C49.3359 1.22259 48.5489 0.318604 47.5781 0.318604Z" fill="#F1A22C"/>
<path d="M29.9999 0.318604C27.4894 0.318604 25.3914 2.31911 24.8625 4.67247C26.5167 4.29021 28.2313 4.0686 29.9999 4.0686C31.7685 4.0686 33.4832 4.29021 35.1373 4.67247C34.6085 2.31911 32.5104 0.318604 29.9999 0.318604Z" fill="#F1A22C"/>
</g>
<defs>
<clipPath id="clip0">
<rect width="60" height="60" fill="white" transform="translate(0 0.318604)"/>
</clipPath>
</defs>
</svg>
