<svg width="36" height="36" viewBox="0 0 36 36" fill="none" xmlns="http://www.w3.org/2000/svg">
<circle cx="18" cy="18" r="17.5" fill="#FFFBF5" stroke="#FDD9A2"/>
<path d="M20.8297 17.2897L16.5897 13.0497C16.4967 12.956 16.3861 12.8816 16.2643 12.8308C16.1424 12.78 16.0117 12.7539 15.8797 12.7539C15.7477 12.7539 15.617 12.78 15.4951 12.8308C15.3733 12.8816 15.2627 12.956 15.1697 13.0497C14.9834 13.2371 14.8789 13.4905 14.8789 13.7547C14.8789 14.0189 14.9834 14.2723 15.1697 14.4597L18.7097 17.9997L15.1697 21.5397C14.9834 21.7271 14.8789 21.9805 14.8789 22.2447C14.8789 22.5089 14.9834 22.7623 15.1697 22.9497C15.2631 23.0424 15.374 23.1157 15.4958 23.1655C15.6176 23.2152 15.7481 23.2405 15.8797 23.2397C16.0113 23.2405 16.1418 23.2152 16.2636 23.1655C16.3854 23.1157 16.4963 23.0424 16.5897 22.9497L20.8297 18.7097C20.9234 18.6167 20.9978 18.5061 21.0486 18.3843C21.0994 18.2624 21.1255 18.1317 21.1255 17.9997C21.1255 17.8677 21.0994 17.737 21.0486 17.6151C20.9978 17.4933 20.9234 17.3827 20.8297 17.2897Z" fill="#574934"/>
</svg>
