<svg width="64" height="64" fill="none" xmlns="http://www.w3.org/2000/svg"><path opacity=".4" d="M30.906 22.72L16.875 36.75H8.187a6.937 6.937 0 00-6.937 6.938V60.25h20V44.757l8.181-12.15A15.066 15.066 0 0032 24.192v-1.02a.641.641 0 00-1.094-.453z" fill="#F1A22C"/><path opacity=".4" d="M55.813 36.75h-8.688l-14.03-14.03a.641.641 0 00-1.095.453v1.02c0 2.997.895 5.927 2.569 8.414l8.181 12.15V60.25h14v-1.633l.719 1.633h5.281V43.688a6.937 6.937 0 00-6.938-6.938z" fill="#F1A22C"/><path d="M14.25 24.75a5.118 5.118 0 00-5.118 5.118v1.764a5.118 5.118 0 0010.236 0v-1.764a5.118 5.118 0 00-5.118-5.118zM49.75 24.75a5.118 5.118 0 015.118 5.118v1.764a5.118 5.118 0 01-10.236 0v-1.764a5.118 5.118 0 015.118-5.118z" fill="#fff"/><path opacity=".4" d="M31.998 12.437c.69 0 1.25-.56 1.25-1.25V3.75a1.25 1.25 0 00-2.5 0v7.437c0 .69.56 1.25 1.25 1.25zM23.148 14.941a1.246 1.246 0 001.768 0 1.25 1.25 0 000-1.768l-2.991-2.988a1.25 1.25 0 00-1.767 1.768l2.99 2.988zM39.78 15.504c.32 0 .64-.122.883-.367l3.18-3.182a1.25 1.25 0 00-1.769-1.767l-3.18 3.182a1.25 1.25 0 00.885 2.134z" fill="#F1A22C"/><path d="M55.813 35.5h-1.01a6.334 6.334 0 001.315-3.868v-1.764A6.375 6.375 0 0049.75 23.5a6.375 6.375 0 00-6.368 6.368v1.371l-9.404-9.404a1.884 1.884 0 00-1.978-.44 1.885 1.885 0 00-1.978.44l-9.404 9.404v-1.37A6.375 6.375 0 0014.25 23.5a6.375 6.375 0 00-6.368 6.368v1.764c0 1.454.491 2.795 1.314 3.868H8.188C3.673 35.5 0 39.173 0 43.688V60.25c0 .69.56 1.25 1.25 1.25h5.281c.125 0 .246-.019.36-.053.114.034.234.053.359.053h14c.69 0 1.25-.56 1.25-1.25V56a1.25 1.25 0 00-2.5 0v3H8.5V44.757a1.25 1.25 0 00-2.5 0V59H2.5V43.688A5.694 5.694 0 018.188 38h8.687c.344 0 .655-.139.881-.364l.003-.002L30.743 24.65a13.764 13.764 0 01-2.349 7.259l-8.18 12.15c-.14.206-.214.45-.214.698v1.368a1.25 1.25 0 002.5 0v-.987l7.968-11.833c.609-.904 1.12-1.86 1.532-2.85.413.99.923 1.946 1.532 2.85L41.5 45.138V60.25c0 .69.56 1.25 1.25 1.25h14c.125 0 .245-.019.36-.053.113.034.234.053.359.053h5.281c.69 0 1.25-.56 1.25-1.25V43.688c0-4.515-3.673-8.188-8.188-8.188zm-45.43-3.868v-1.764A3.872 3.872 0 0114.25 26a3.872 3.872 0 013.868 3.868v1.764A3.872 3.872 0 0114.25 35.5a3.872 3.872 0 01-3.868-3.868zm35.5-1.764A3.872 3.872 0 0149.75 26a3.872 3.872 0 013.868 3.868v1.764A3.872 3.872 0 0149.75 35.5a3.872 3.872 0 01-3.868-3.868v-1.764zM61.5 59H58v-9.25a1.25 1.25 0 00-2.5 0V59H44V44.757a1.25 1.25 0 00-.213-.698l-8.181-12.15a13.764 13.764 0 01-2.349-7.258l12.984 12.983a1.244 1.244 0 00.884.366h8.688a5.694 5.694 0 015.687 5.688V59z" fill="#F1A22C"/><path d="M56.75 43.506a1.26 1.26 0 00-.884.367 1.26 1.26 0 00-.366.883c0 .33.134.652.366.884.233.233.555.366.884.366.329 0 .651-.133.884-.366a1.26 1.26 0 00.366-.884c0-.328-.134-.65-.366-.883a1.259 1.259 0 00-.884-.367zM21.25 50.125a1.26 1.26 0 00-.884.366 1.26 1.26 0 00-.366.884c0 .329.134.651.366.884.233.232.555.366.884.366.329 0 .651-.134.884-.366a1.26 1.26 0 00.366-.884c0-.329-.134-.651-.366-.884a1.259 1.259 0 00-.884-.366z" fill="#F1A22C"/></svg>