<?xml version="1.0" encoding="UTF-8"?>
<svg xmlns="http://www.w3.org/2000/svg" xmlns:xlink="http://www.w3.org/1999/xlink" width="40pt" height="40pt" viewBox="0 0 40 40" version="1.1">
<defs>
<linearGradient id="linear0" gradientUnits="userSpaceOnUse" x1="-37.106" y1="-72.705" x2="-26.555" y2="-84.047" gradientTransform="matrix(0,-3.303333,-3.073333,0,-220.87,-85.128333)">
<stop offset="0" style="stop-color:rgb(100%,86.666667%,33.333333%);stop-opacity:1;"/>
<stop offset="0.5" style="stop-color:rgb(100%,32.941176%,24.313725%);stop-opacity:1;"/>
<stop offset="1" style="stop-color:rgb(78.431373%,21.568627%,67.058824%);stop-opacity:1;"/>
</linearGradient>
</defs>
<g id="surface1">
<path style=" stroke:none;fill-rule:nonzero;fill:url(#linear0);" d="M 2.5 2.722656 C -0.644531 5.988281 0 9.453125 0 19.992188 C 0 28.742188 -1.527344 37.511719 6.464844 39.578125 C 8.957031 40.21875 31.066406 40.21875 33.558594 39.574219 C 36.882812 38.714844 39.589844 36.019531 39.960938 31.3125 C 40.011719 30.65625 40.011719 9.339844 39.957031 8.667969 C 39.566406 3.65625 36.480469 0.769531 32.414062 0.183594 C 31.484375 0.046875 31.296875 0.0078125 26.515625 0 C 9.5625 0.0078125 5.84375 -0.746094 2.5 2.722656 Z M 2.5 2.722656 "/>
<path style=" stroke:none;fill-rule:nonzero;fill:rgb(100%,100%,100%);fill-opacity:1;" d="M 19.996094 5.230469 C 13.945312 5.230469 8.199219 4.691406 6.003906 10.328125 C 5.097656 12.652344 5.226562 15.675781 5.226562 20 C 5.226562 23.796875 5.105469 27.367188 6.003906 29.675781 C 8.191406 35.3125 13.988281 34.773438 19.992188 34.773438 C 25.789062 34.773438 31.761719 35.375 33.984375 29.675781 C 34.894531 27.324219 34.761719 24.347656 34.761719 20 C 34.761719 14.230469 35.078125 10.507812 32.28125 7.710938 C 29.445312 4.875 25.613281 5.230469 19.988281 5.230469 Z M 18.671875 7.894531 C 31.296875 7.875 32.902344 6.46875 32.015625 25.964844 C 31.703125 32.859375 26.453125 32.101562 20 32.101562 C 8.230469 32.101562 7.894531 31.765625 7.894531 19.996094 C 7.894531 8.085938 8.828125 7.898438 18.671875 7.890625 Z M 27.878906 10.34375 C 26.902344 10.34375 26.109375 11.136719 26.109375 12.117188 C 26.109375 13.09375 26.902344 13.886719 27.878906 13.886719 C 28.859375 13.886719 29.652344 13.09375 29.652344 12.117188 C 29.652344 11.136719 28.859375 10.34375 27.878906 10.34375 Z M 19.996094 12.417969 C 15.808594 12.417969 12.414062 15.8125 12.414062 20 C 12.414062 24.191406 15.808594 27.585938 19.996094 27.585938 C 24.183594 27.585938 27.578125 24.191406 27.578125 20 C 27.578125 15.8125 24.183594 12.417969 19.996094 12.417969 Z M 19.996094 15.078125 C 26.503906 15.078125 26.511719 24.925781 19.996094 24.925781 C 13.488281 24.925781 13.480469 15.078125 19.996094 15.078125 Z M 19.996094 15.078125 "/>
</g>
</svg>
