<?xml version="1.0" encoding="UTF-8"?>
<svg xmlns="http://www.w3.org/2000/svg" xmlns:xlink="http://www.w3.org/1999/xlink" width="40" height="40" viewBox="0 0 40 40" version="1.1">
<g id="surface1">
<path style=" stroke:none;fill-rule:nonzero;fill:rgb(30.196078%,46.27451%,63.137255%);fill-opacity:1;" d="M 40 20 C 40 31.046875 31.046875 40 20 40 C 8.953125 40 0 31.046875 0 20 C 0 8.953125 8.953125 0 20 0 C 31.046875 0 40 8.953125 40 20 Z M 40 20 "/>
<path style=" stroke:none;fill-rule:evenodd;fill:rgb(100%,100%,100%);fill-opacity:1;" d="M 19.246094 28.773438 L 20.8125 28.773438 C 20.8125 28.773438 21.289062 28.71875 21.53125 28.457031 C 21.753906 28.21875 21.746094 27.769531 21.746094 27.769531 C 21.746094 27.769531 21.714844 25.664062 22.691406 25.351562 C 23.65625 25.046875 24.894531 27.386719 26.207031 28.289062 C 27.199219 28.96875 27.953125 28.820312 27.953125 28.820312 L 31.457031 28.773438 C 31.457031 28.773438 33.292969 28.660156 32.421875 27.214844 C 32.351562 27.097656 31.917969 26.148438 29.816406 24.199219 C 27.617188 22.15625 27.910156 22.488281 30.558594 18.957031 C 32.171875 16.808594 32.816406 15.496094 32.617188 14.933594 C 32.425781 14.398438 31.238281 14.539062 31.238281 14.539062 L 27.289062 14.5625 C 27.289062 14.5625 26.996094 14.523438 26.78125 14.652344 C 26.566406 14.78125 26.429688 15.078125 26.429688 15.078125 C 26.429688 15.078125 25.804688 16.742188 24.972656 18.15625 C 23.214844 21.140625 22.511719 21.300781 22.222656 21.113281 C 21.554688 20.683594 21.722656 19.378906 21.722656 18.453125 C 21.722656 15.558594 22.160156 14.351562 20.867188 14.039062 C 20.4375 13.9375 20.121094 13.867188 19.023438 13.855469 C 17.617188 13.839844 16.421875 13.859375 15.746094 14.191406 C 15.296875 14.410156 14.953125 14.902344 15.164062 14.929688 C 15.425781 14.964844 16.015625 15.089844 16.328125 15.515625 C 16.734375 16.066406 16.71875 17.300781 16.71875 17.300781 C 16.71875 17.300781 16.953125 20.707031 16.175781 21.132812 C 15.644531 21.421875 14.914062 20.828125 13.347656 18.121094 C 12.542969 16.734375 11.9375 15.199219 11.9375 15.199219 C 11.9375 15.199219 11.820312 14.914062 11.609375 14.757812 C 11.359375 14.574219 11.003906 14.515625 11.003906 14.515625 L 7.25 14.539062 C 7.25 14.539062 6.6875 14.554688 6.480469 14.800781 C 6.296875 15.019531 6.46875 15.46875 6.46875 15.46875 C 6.46875 15.46875 9.40625 22.339844 12.730469 25.804688 C 15.78125 28.980469 19.246094 28.773438 19.246094 28.773438 Z M 19.246094 28.773438 "/>
</g>
</svg>
