<?xml version="1.0" encoding="UTF-8"?>
<svg xmlns="http://www.w3.org/2000/svg" xmlns:xlink="http://www.w3.org/1999/xlink" width="40pt" height="40pt" viewBox="0 0 40 40" version="1.1">
<g id="surface1">
<path style=" stroke:none;fill-rule:nonzero;fill:rgb(29.803922%,68.627451%,31.372549%);fill-opacity:1;" d="M 20.003906 0 L 19.996094 0 C 8.96875 0 0 8.96875 0 20 C 0 24.375 1.410156 28.429688 3.808594 31.722656 L 1.316406 39.152344 L 9.003906 36.695312 C 12.164062 38.789062 15.9375 40 20.003906 40 C 31.03125 40 40 31.027344 40 20 C 40 8.972656 31.03125 0 20.003906 0 Z M 20.003906 0 "/>
<path style=" stroke:none;fill-rule:nonzero;fill:rgb(98.039216%,98.039216%,98.039216%);fill-opacity:1;" d="M 31.640625 28.242188 C 31.160156 29.605469 29.246094 30.734375 27.71875 31.066406 C 26.671875 31.289062 25.308594 31.464844 20.710938 29.558594 C 14.835938 27.125 11.050781 21.152344 10.753906 20.765625 C 10.472656 20.378906 8.378906 17.601562 8.378906 14.734375 C 8.378906 11.863281 9.835938 10.464844 10.425781 9.863281 C 10.90625 9.371094 11.703125 9.148438 12.46875 9.148438 C 12.71875 9.148438 12.941406 9.160156 13.140625 9.171875 C 13.726562 9.195312 14.023438 9.230469 14.410156 10.15625 C 14.890625 11.320312 16.066406 14.191406 16.207031 14.484375 C 16.351562 14.78125 16.492188 15.179688 16.292969 15.566406 C 16.105469 15.96875 15.941406 16.144531 15.644531 16.484375 C 15.351562 16.824219 15.070312 17.085938 14.773438 17.449219 C 14.503906 17.765625 14.199219 18.109375 14.539062 18.695312 C 14.878906 19.269531 16.054688 21.1875 17.785156 22.726562 C 20.015625 24.714844 21.828125 25.351562 22.476562 25.621094 C 22.957031 25.820312 23.53125 25.773438 23.886719 25.398438 C 24.332031 24.914062 24.886719 24.113281 25.449219 23.328125 C 25.847656 22.761719 26.351562 22.691406 26.882812 22.890625 C 27.421875 23.078125 30.28125 24.492188 30.867188 24.785156 C 31.453125 25.078125 31.84375 25.21875 31.984375 25.46875 C 32.125 25.714844 32.125 26.878906 31.640625 28.242188 Z M 31.640625 28.242188 "/>
</g>
</svg>
