<svg width="64" height="64" fill="none" xmlns="http://www.w3.org/2000/svg"><path d="M14 40a6 6 0 106 6 6.006 6.006 0 00-6-6zm0 9a3 3 0 110-6 3 3 0 010 6z" fill="#F1A22C"/><path opacity=".4" d="M63.248 25.168l-3.555-5.332a2.994 2.994 0 00-2.496-1.336H3.5a3.003 3.003 0 00-3 3v19h8.408a7.482 7.482 0 0110.184 0h25.816a7.482 7.482 0 0110.184 0H63.5V26a1.5 1.5 0 00-.252-.832zM25 28.5a1.5 1.5 0 01-1.5 1.5H8a1.5 1.5 0 01-1.5-1.5v-6.25a1.5 1.5 0 011.5-1.5h15.5a1.5 1.5 0 011.5 1.5v6.25zm22 0a1.5 1.5 0 01-1.5 1.5h-16a1.5 1.5 0 01-1.5-1.5v-6.25a1.5 1.5 0 011.5-1.5h16a1.5 1.5 0 011.5 1.5v6.25zm14 6.913c-.157.055-5.5.087-5.5.087A1.5 1.5 0 0154 34V22.25a1.5 1.5 0 011.5-1.5h1.803l3.445 4.418A1.5 1.5 0 0161 26v9.413z" fill="#F1A22C"/><path d="M57.5 46a7.451 7.451 0 01-.87 3.5h3.87a3.003 3.003 0 003-3v-3h-6.43c.285.803.43 1.648.43 2.5zM6.93 43.5H.5v3a3.003 3.003 0 003 3h3.87a7.48 7.48 0 01-.44-6zM42.93 43.5H21.07a7.479 7.479 0 01-.44 6h22.74a7.48 7.48 0 01-.44-6zM50 40a6 6 0 106 6 6.006 6.006 0 00-6-6zm0 9a3 3 0 110-6 3 3 0 010 6z" fill="#F1A22C"/></svg>