<svg width="24" height="28" fill="none" xmlns="http://www.w3.org/2000/svg"><path opacity=".4" fill-rule="evenodd" clip-rule="evenodd" d="M7.93 4.775h8.19V2.868H7.93v1.907zM6.065 2.947v.01a9.166 9.166 0 00-1.887.375v-.007a.8.8 0 01-.052.02c-.022.007-.042.014-.062.024a.691.691 0 00-.143.052c-.135.044-.27.097-.397.15-.034.013-.068.028-.101.043l-.102.044a8.544 8.544 0 00-.143.07l-.143.07-.228.131c-.043.022-.082.047-.122.073a5.461 5.461 0 00-1.025.823l-.016.018-.113.13c-.063.07-.124.14-.183.212l-.017.016A7.064 7.064 0 00.01 9.696v.512h1.847v-.516c0-2.248.716-3.647 2.31-4.364a6.323 6.323 0 011.905-.474h.017V2.955l-.022-.008zm16.598 2.23l.008.017a7.07 7.07 0 011.319 4.498v.516h-1.846v-.53a5.882 5.882 0 00-.557-2.754 3.51 3.51 0 00-1.763-1.609 6.105 6.105 0 00-1.878-.474V2.95a9.27 9.27 0 011.889.377v-.01c.034.016.06.025.106.041l.008.003.06.022.083.03c.126.042.245.09.366.141l.022.009c.056.02.109.044.156.066l.045.02a4.17 4.17 0 01.444.228l.079.044c.04.023.076.047.11.07a5.78 5.78 0 011.034.826l.01.018c.108.108.21.222.305.342z" fill="#fff"/><path d="M18 1.623v4.202a.959.959 0 01-1.92 0V1.632a.958.958 0 01.953-.965.959.959 0 01.967.95v.006zM7.92 1.638v4.191a.96.96 0 11-1.92 0V1.638a.96.96 0 111.92 0z" fill="#fff"/><path fill-rule="evenodd" clip-rule="evenodd" d="M0 20.547v-10.34h24v10.34c0 4.508-2.518 6.786-7.508 6.786H7.496C2.518 27.333 0 25.055 0 20.547zm5.413-4.591c0 .625.493 1.133 1.1 1.133.617 0 1.11-.52 1.098-1.145 0-.626-.492-1.133-1.087-1.133h-.012c-.606 0-1.099.52-1.099 1.145zm5.483 0c0 .625.503 1.133 1.11 1.133.606 0 1.098-.508 1.098-1.145 0-.614-.492-1.121-1.098-1.133h-.012a1.135 1.135 0 00-1.098 1.145zm6.592 1.133c-.607 0-1.099-.508-1.099-1.133 0-.626.48-1.133 1.099-1.133.606 0 1.099.507 1.099 1.133 0 .625-.493 1.133-1.1 1.133zm0 4.839c-.607 0-1.099-.508-1.11-1.133 0-.626.492-1.133 1.098-1.133h.012c.606 0 1.099.507 1.099 1.133 0 .625-.493 1.133-1.1 1.133zm-5.482 0c-.607 0-1.11-.508-1.11-1.133 0-.626.492-1.133 1.098-1.145h.012c.606.012 1.087.52 1.098 1.133 0 .637-.492 1.145-1.098 1.145zm-5.494 0c-.606 0-1.099-.508-1.099-1.133-.011-.626.481-1.145 1.1-1.145.606 0 1.098.507 1.098 1.133 0 .625-.492 1.145-1.099 1.145z" fill="#fff"/></svg>