<svg width="24" height="24" fill="none" xmlns="http://www.w3.org/2000/svg"><path opacity=".4" d="M11.776 21.837a36.263 36.263 0 01-6.328-4.957 12.668 12.668 0 01-3.03-4.805c-1.138-3.54.186-7.586 3.884-8.787A6.282 6.282 0 0112.008 4.3a6.291 6.291 0 015.705-1.012c3.698 1.201 5.03 5.247 3.893 8.787a12.67 12.67 0 01-3.013 4.805 36.59 36.59 0 01-6.328 4.957l-.249.163-.24-.163z" fill="#fff"/><path d="M12.011 22l-.235-.163A36.318 36.318 0 015.44 16.88a12.667 12.667 0 01-3.048-4.805c-1.129-3.54.195-7.586 3.893-8.787a6.296 6.296 0 015.727 1.023V22zM18.23 10a.719.719 0 01-.517-.278.818.818 0 01-.167-.592c.022-.702-.377-1.341-.994-1.59-.39-.107-.627-.53-.53-.948.093-.41.478-.666.864-.573a.384.384 0 01.139.052c1.236.476 2.036 1.755 1.972 3.155a.807.807 0 01-.23.56.708.708 0 01-.536.213z" fill="#fff"/></svg>