<svg width="40" height="40" fill="none" xmlns="http://www.w3.org/2000/svg"><rect x="1.583" y="1.434" width="37.367" height="37.367" rx="18.683" fill="#fff" stroke="#DBDBDB" stroke-width="2.5"/><path fill-rule="evenodd" clip-rule="evenodd" d="M20.08 10.068c-2.6 0-2.927.012-3.948.06-1.02.047-1.715.214-2.324.458a4.676 4.676 0 00-1.696 1.137 4.86 4.86 0 00-1.105 1.747c-.237.627-.399 1.344-.445 2.394-.046 1.052-.057 1.388-.057 4.066 0 2.68.011 3.014.057 4.066.047 1.05.209 1.767.445 2.394a4.85 4.85 0 001.104 1.747 4.677 4.677 0 001.696 1.138c.609.244 1.305.41 2.324.459 1.021.047 1.347.06 3.947.06s2.926-.012 3.947-.06c1.02-.049 1.716-.215 2.325-.459a4.672 4.672 0 001.695-1.138 4.86 4.86 0 001.105-1.747c.235-.627.397-1.344.445-2.394.046-1.052.058-1.387.058-4.066 0-2.678-.012-3.014-.058-4.066-.048-1.05-.21-1.767-.445-2.394a4.858 4.858 0 00-1.105-1.747 4.667 4.667 0 00-1.696-1.137c-.61-.244-1.306-.41-2.325-.459-1.021-.047-1.347-.06-3.948-.06h.003zm-.859 1.777h.86c2.556 0 2.858.01 3.868.057.933.044 1.44.204 1.778.34.446.178.765.392 1.1.737.335.345.542.674.716 1.134.131.347.288.87.33 1.83.046 1.04.056 1.353.056 3.985 0 2.632-.01 2.944-.056 3.984-.043.962-.199 1.484-.33 1.83a3.06 3.06 0 01-.716 1.134 2.956 2.956 0 01-1.1.737c-.337.136-.845.296-1.778.34-1.01.048-1.313.058-3.869.058s-2.86-.01-3.868-.058c-.934-.044-1.44-.205-1.778-.34a2.96 2.96 0 01-1.101-.737 3.066 3.066 0 01-.717-1.134c-.13-.347-.287-.87-.33-1.83-.045-1.04-.055-1.353-.055-3.986 0-2.634.01-2.945.056-3.984.042-.962.198-1.484.33-1.832.173-.46.38-.789.716-1.134a2.965 2.965 0 011.1-.738c.338-.136.845-.296 1.779-.34.883-.041 1.225-.053 3.01-.056v.003zm5.967 1.637c-.634 0-1.148.53-1.148 1.183s.514 1.184 1.148 1.184c.635 0 1.15-.53 1.15-1.184 0-.653-.515-1.183-1.15-1.183zm-5.108 1.384c-2.715 0-4.917 2.267-4.917 5.064 0 2.798 2.202 5.064 4.917 5.064s4.916-2.266 4.916-5.064c0-2.797-2.2-5.064-4.916-5.064zm-.001 1.777c1.762 0 3.191 1.472 3.191 3.287 0 1.816-1.429 3.288-3.191 3.288-1.763 0-3.192-1.472-3.192-3.288 0-1.815 1.429-3.287 3.192-3.287z" fill="#F1A22C"/></svg>
