<svg width="32" height="32" fill="none" xmlns="http://www.w3.org/2000/svg"><g fill="#241534"><path d="M15.932 19.387c-4.6 0-8.481.751-8.481 3.652 0 2.902 3.906 3.628 8.48 3.628 4.6 0 8.482-.752 8.482-3.653 0-2.902-3.906-3.627-8.481-3.627z"/><path opacity=".4" d="M15.932 16.623c3.115 0 5.612-2.512 5.612-5.645 0-3.134-2.497-5.645-5.612-5.645s-5.612 2.511-5.612 5.645c0 3.133 2.497 5.645 5.612 5.645zM28.117 12.292c.806-3.17-1.556-6.017-4.565-6.017-.327 0-.64.036-.946.098-.04.01-.086.03-.11.066-.027.045-.007.107.023.146a7.744 7.744 0 011.423 4.495A7.683 7.683 0 0122.63 15.4a.211.211 0 00.142.325c.21.038.425.057.645.063 2.19.058 4.157-1.36 4.7-3.497z"/><path d="M30.412 19.756c-.4-.86-1.37-1.45-2.841-1.739-.695-.17-2.575-.41-4.324-.378-.027.004-.04.022-.043.034-.004.016.003.045.038.063.808.402 3.932 2.152 3.54 5.842-.017.16.11.298.27.274.768-.11 2.747-.538 3.36-1.87.34-.704.34-1.521 0-2.226z"/><path opacity=".4" d="M9.393 6.373a4.686 4.686 0 00-.945-.097c-3.009 0-5.372 2.847-4.565 6.017.542 2.136 2.509 3.554 4.7 3.496.22-.006.435-.026.644-.062a.211.211 0 00.142-.326 7.686 7.686 0 01-1.312-4.321c0-1.668.52-3.22 1.424-4.494.03-.04.05-.101.022-.147-.024-.037-.068-.056-.11-.066z"/><path d="M4.429 18.017c-1.472.29-2.44.879-2.84 1.739a2.558 2.558 0 000 2.227c.613 1.33 2.591 1.759 3.36 1.868.159.024.286-.113.269-.273-.393-3.69 2.731-5.439 3.54-5.84.034-.02.041-.048.038-.066-.003-.012-.016-.03-.042-.032-1.75-.034-3.63.206-4.325.377z"/></g></svg>