<svg width="25" height="24" viewBox="0 0 25 24" fill="none" xmlns="http://www.w3.org/2000/svg">
<path opacity="0.4" d="M16.755 2H7.42171C4.01727 2 2.08838 3.92889 2.08838 7.33333V16.6667C2.08838 20.0622 4.00838 22 7.42171 22H16.755C20.1595 22 22.0884 20.0622 22.0884 16.6667V7.33333C22.0884 3.92889 20.1595 2 16.755 2Z" fill="white"/>
<path d="M15.4088 12.7083H12.8379V15.257C12.8379 15.6673 12.5023 16 12.0884 16C11.6744 16 11.3389 15.6673 11.3389 15.257V12.7083H8.76792C8.3818 12.6687 8.08838 12.3461 8.08838 11.9613C8.08838 11.5765 8.3818 11.2539 8.76792 11.2143H11.3308V8.67365C11.3708 8.29088 11.6962 8 12.0843 8C12.4725 8 12.7979 8.29088 12.8379 8.67365V11.2143H15.4088C15.795 11.2539 16.0884 11.5765 16.0884 11.9613C16.0884 12.3461 15.795 12.6687 15.4088 12.7083Z" fill="white"/>
</svg>
