<svg width="64" height="64" fill="none" xmlns="http://www.w3.org/2000/svg"><path d="M51.894 21.672l-4.96-1.489a52.194 52.194 0 00-29.87 0l-4.958 1.49c-3.6 1.079-6.012 4.33-6.012 8.087v7.145c0 4.414 3.31 8.03 7.708 8.41l6.174.54a13.1 13.1 0 008.092-1.948l3.264-2.04a1.242 1.242 0 011.306.008l3.198 2.049a13.09 13.09 0 008.33 2.017l6.106-.584a8.404 8.404 0 007.636-8.406v-7.192a8.389 8.389 0 00-6.014-8.087zm1.852 15.28a4.254 4.254 0 01-3.868 4.25l-6.11.583c-2.006.19-3.999-.296-5.682-1.376l-3.197-2.049a5.39 5.39 0 00-5.77-.033l-3.265 2.039a8.966 8.966 0 01-5.52 1.327l-6.177-.538a4.248 4.248 0 01-3.902-4.253v-7.145c0-1.9 1.225-3.544 3.045-4.09l4.966-1.489a48.02 48.02 0 0127.47 0l4.969 1.49a4.248 4.248 0 013.045 4.09v7.194h-.004z" fill="#F1A22C"/><path opacity=".4" d="M20.707 40.22l1.66.122c.408.03.816.024 1.213.006V24.606c-.99.174-1.932.381-2.873.617V40.22zM12.582 30.581v4.977c0 2.296 2.064 4.213 4.739 4.41l.81.058V25.87l-1.85.47c-2.19.562-3.698 2.286-3.698 4.241z" fill="#F1A22C"/><path d="M0 31.837v3.234c0 2.256 1.834 4.085 4.062 4.085V27.753C1.832 27.754 0 29.583 0 31.837zM59.938 27.754v11.403c2.23 0 4.062-1.83 4.062-4.085v-3.233c0-2.257-1.833-4.085-4.062-4.085z" fill="#F1A22C"/></svg>