<svg width="20" height="20" fill="none" xmlns="http://www.w3.org/2000/svg"><path opacity=".4" d="M10.976 1.114l2.227 4.474c.164.324.477.55.838.6l5.001.728c.292.04.557.195.736.43.177.232.253.526.21.815-.035.24-.148.462-.32.633l-3.625 3.512a1.056 1.056 0 00-.32.964l.891 4.938c.095.597-.3 1.159-.892 1.272a1.168 1.168 0 01-.714-.114l-4.46-2.324a1.17 1.17 0 00-1.054 0l-4.461 2.324a1.143 1.143 0 01-1.532-.447 1.131 1.131 0 01-.116-.7l.892-4.94a1.061 1.061 0 00-.321-.964L.332 8.805a1.084 1.084 0 01-.029-1.533l.029-.03c.172-.174.398-.285.642-.314l5.001-.73c.36-.05.673-.274.838-.6L8.96 1.114A1.107 1.107 0 019.977.5h.134c.373.045.698.276.865.614z" fill="#F1A22C"/><path d="M9.992 16.917a1.227 1.227 0 00-.552.151L5 19.388a1.158 1.158 0 01-1.497-.462 1.106 1.106 0 01-.116-.694l.887-4.929c.06-.358-.06-.722-.32-.975L.327 8.818A1.093 1.093 0 01.31 7.274l.017-.016c.172-.17.393-.282.632-.317l5.005-.737c.363-.046.677-.272.837-.6l2.176-4.54A1.106 1.106 0 0110 .501c-.008.297-.008 16.213-.008 16.415z" fill="#F1A22C"/></svg>