<?xml version="1.0" encoding="UTF-8"?>
<svg xmlns="http://www.w3.org/2000/svg" xmlns:xlink="http://www.w3.org/1999/xlink" width="40" height="40" viewBox="0 0 35 35" version="1.1">
<g id="surface1">
<path style=" stroke:none;fill-rule:nonzero;fill:#DBDBDB;fill-opacity:1;" d="M 33.527344 12.351562 C 33.53125 9.066406 32.242188 5.96875 29.902344 3.628906 C 27.5625 1.289062 24.464844 0 21.175781 0 L 13.855469 0 C 10.570312 0 7.472656 1.289062 5.132812 3.628906 C 2.792969 5.96875 1.503906 9.066406 1.503906 12.351562 L 1.503906 18.105469 C 1.503906 20.652344 2.28125 23.101562 3.75 25.1875 C 5.046875 27.03125 6.789062 28.46875 8.820312 29.378906 L 8.820312 32.683594 C 8.820312 34.394531 9.777344 35 10.597656 35 C 11.183594 35 11.769531 34.710938 12.335938 34.140625 L 16.019531 30.460938 L 21.175781 30.460938 C 24.464844 30.460938 27.5625 29.171875 29.902344 26.832031 C 32.242188 24.492188 33.53125 21.394531 33.53125 18.105469 Z M 21.175781 28.410156 L 15.59375 28.410156 C 15.324219 28.410156 15.0625 28.515625 14.871094 28.710938 L 10.886719 32.691406 C 10.882812 32.695312 10.878906 32.703125 10.871094 32.707031 C 10.871094 32.699219 10.871094 32.691406 10.871094 32.683594 L 10.871094 28.695312 C 10.871094 28.269531 10.609375 27.890625 10.210938 27.738281 C 6.230469 26.21875 3.554688 22.347656 3.554688 18.105469 L 3.554688 12.351562 C 3.554688 9.613281 4.628906 7.03125 6.582031 5.078125 C 8.535156 3.125 11.117188 2.050781 13.855469 2.050781 L 21.175781 2.050781 C 23.914062 2.050781 26.5 3.125 28.453125 5.078125 C 30.402344 7.03125 31.480469 9.613281 31.476562 12.351562 L 31.480469 18.105469 C 31.476562 23.789062 26.855469 28.410156 21.175781 28.410156 Z M 21.175781 28.410156 "/>
<path style=" stroke:none;fill-rule:nonzero;fill:#f1a22c;fill-opacity:1;" d="M 20.242188 16.769531 C 19.84375 16.371094 19.195312 16.371094 18.792969 16.769531 L 17.964844 17.597656 L 14.753906 14.390625 L 15.582031 13.5625 C 15.777344 13.371094 15.882812 13.109375 15.882812 12.835938 C 15.882812 12.566406 15.777344 12.304688 15.582031 12.113281 L 11.699219 8.226562 C 11.507812 8.035156 11.246094 7.929688 10.976562 7.929688 C 10.703125 7.929688 10.441406 8.035156 10.25 8.226562 L 7.53125 10.945312 C 6.0625 12.417969 6.0625 14.808594 7.53125 16.28125 L 16.074219 24.824219 C 16.785156 25.53125 17.734375 25.921875 18.742188 25.921875 C 19.75 25.921875 20.699219 25.53125 21.410156 24.824219 L 24.125 22.105469 C 24.320312 21.914062 24.425781 21.652344 24.425781 21.378906 C 24.425781 21.109375 24.320312 20.847656 24.125 20.65625 Z M 19.957031 23.371094 C 19.636719 23.695312 19.203125 23.871094 18.742188 23.871094 C 18.28125 23.871094 17.847656 23.695312 17.523438 23.371094 L 8.984375 14.828125 C 8.3125 14.160156 8.3125 13.066406 8.984375 12.398438 L 10.976562 10.402344 L 13.410156 12.835938 L 12.582031 13.664062 C 12.386719 13.855469 12.28125 14.117188 12.28125 14.390625 C 12.28125 14.660156 12.386719 14.921875 12.582031 15.113281 L 17.238281 19.773438 C 17.640625 20.175781 18.289062 20.175781 18.691406 19.773438 L 19.519531 18.945312 L 21.953125 21.378906 Z M 19.957031 23.371094 "/>
<path style=" stroke:none;fill-rule:nonzero;fill:#f1a22c;fill-opacity:1;" d="M 17.765625 4.535156 C 17.199219 4.535156 16.738281 4.996094 16.738281 5.5625 C 16.738281 6.128906 17.199219 6.585938 17.765625 6.585938 C 20.113281 6.585938 22.320312 7.5 23.976562 9.160156 C 25.636719 10.820312 26.550781 13.027344 26.550781 15.371094 C 26.550781 15.9375 27.011719 16.398438 27.578125 16.398438 C 28.144531 16.398438 28.601562 15.9375 28.601562 15.371094 C 28.601562 12.476562 27.476562 9.757812 25.429688 7.710938 C 23.382812 5.664062 20.660156 4.535156 17.765625 4.535156 Z M 17.765625 4.535156 "/>
<path style=" stroke:none;fill-rule:nonzero;fill:#f1a22c;fill-opacity:1;" d="M 22.15625 15.371094 C 22.15625 15.9375 22.617188 16.398438 23.183594 16.398438 C 23.75 16.398438 24.207031 15.9375 24.207031 15.371094 C 24.207031 11.820312 21.316406 8.929688 17.765625 8.929688 C 17.199219 8.929688 16.738281 9.386719 16.738281 9.953125 C 16.738281 10.519531 17.199219 10.980469 17.765625 10.980469 C 20.1875 10.980469 22.15625 12.949219 22.15625 15.371094 Z M 22.15625 15.371094 "/>
</g>
</svg>
