<svg width="40" height="40" fill="none" xmlns="http://www.w3.org/2000/svg"><rect x="1.12" y="1.434" width="37.367" height="37.367" rx="18.683" fill="#fff" stroke="#DBDBDB" stroke-width="2.5"/><path fill-rule="evenodd" clip-rule="evenodd" d="M20.02 26.083s.388-.043.587-.26c.182-.197.176-.57.176-.57s-.024-1.744.776-2.002c.79-.253 1.803 1.686 2.878 2.432.812.564 1.429.44 1.429.44l2.873-.04s1.502-.093.79-1.288c-.059-.098-.416-.884-2.136-2.5-1.802-1.69-1.56-1.416.61-4.341 1.321-1.78 1.85-2.868 1.684-3.333-.157-.445-1.129-.327-1.129-.327l-3.234.02s-.24-.033-.418.075c-.173.105-.286.351-.286.351s-.511 1.378-1.194 2.55c-1.44 2.473-2.016 2.604-2.252 2.45-.548-.358-.411-1.438-.411-2.205 0-2.397.36-3.396-.7-3.655-.351-.086-.61-.142-1.51-.152-1.154-.011-2.13.005-2.684.278-.368.182-.652.588-.478.612.213.028.697.132.954.485.331.456.32 1.48.32 1.48s.19 2.821-.445 3.171c-.436.24-1.033-.25-2.318-2.494-.658-1.149-1.154-2.419-1.154-2.419s-.096-.237-.268-.365a1.314 1.314 0 00-.496-.202l-3.073.02s-.462.013-.632.216c-.15.18-.011.553-.011.553s2.406 5.693 5.131 8.563c2.499 2.63 5.335 2.457 5.335 2.457h1.286z" fill="#F1A22C"/></svg>
