<svg xmlns="http://www.w3.org/2000/svg" width="40" height="40" viewBox="0 0 25 25">
<g clip-path="url(#clip0)">
<path d="M12.43 24.86c-1.262 0-2.524-.212-3.758-.63a.737.737 0 11.473-1.398 10.31 10.31 0 003.285.547c6.039 0 10.949-4.953 10.949-11.047 0-5.988-4.934-10.852-10.996-10.852C6.367 1.48 1.48 6.344 1.48 12.332c0 2.102.579 4.133 1.68 5.883l.285.43a.737.737 0 01.102.605l-.785 2.863 2.957-.758a.744.744 0 01.898.536.738.738 0 01-.531.898l-4.191 1.07A.736.736 0 011 22.95l1.031-3.765-.101-.16a.03.03 0 01-.016-.016A12.505 12.505 0 010 12.332c0-3.309 1.29-6.406 3.625-8.73A12.33 12.33 0 0112.383 0c3.316 0 6.441 1.27 8.797 3.578a12.176 12.176 0 013.68 8.754c0 3.324-1.301 6.465-3.669 8.844-2.363 2.37-5.472 3.683-8.761 3.683zm0 0" fill="#DBDBDB"/>
<path d="M19.383 17.14l.222-.738a.547.547 0 00-.218-.62l-3.266-1.848a.527.527 0 00-.664.109l-1.488 1.617a.433.433 0 01-.446.067c-.543-.243-1.742-.797-2.632-1.688-.012-.008-.028-.023-.04-.035-.007-.012-.023-.024-.035-.035-.93-.93-1.441-2.094-1.687-2.637a.427.427 0 01.07-.441l1.614-1.493a.516.516 0 00.109-.66L9.074 5.473a.54.54 0 00-.617-.223l-.742.227a3.181 3.181 0 00-1.93 1.574c-.515 1.015-.683 2.226-.125 3.703.934 2.484 2.223 4.187 3.238 5.203 1.016 1.016 2.72 2.305 5.207 3.242 1.477.559 2.684.387 3.704-.125a3.18 3.18 0 001.574-1.933zm0 0" fill="#fee187"/>
<path d="M15.879 20.285c-.66 0-1.344-.137-2.035-.394-2.723-1.028-4.477-2.422-5.465-3.41-.988-.989-2.383-2.739-3.414-5.465-.567-1.512-.516-2.954.16-4.297.004-.008.004-.012.008-.016a3.941 3.941 0 012.37-1.937l.731-.22a1.27 1.27 0 011.469.54c.004.008.012.012.012.023l1.848 3.254c.304.516.199 1.176-.25 1.582l-1.41 1.305c.25.547.706 1.46 1.425 2.184l.016.015.062.063c.004.008.012.011.02.015.703.7 1.656 1.184 2.183 1.43l1.301-1.41c.246-.274.59-.426.945-.426.223 0 .446.063.637.176l3.258 1.844c.008.004.016.011.023.011.485.297.715.926.54 1.473l-.223.727a3.943 3.943 0 01-1.934 2.375c-.008 0-.008.003-.02.007a4.963 4.963 0 01-2.257.551zM6.438 7.391c-.481.968-.508 1.98-.086 3.101.98 2.61 2.347 4.219 3.074 4.942.722.726 2.328 2.093 4.941 3.074.524.199 1.031.3 1.512.3.547 0 1.066-.128 1.59-.39a2.497 2.497 0 001.207-1.48v-.012l.18-.594-2.958-1.672-1.39 1.496a.356.356 0 01-.067.067 1.166 1.166 0 01-1.207.183c-.004 0-.007-.004-.011-.004-.504-.226-1.848-.832-2.856-1.84l-.012-.011-.02-.024c-.003 0-.007 0-.007-.004l-.023-.023s-.008-.004-.008-.008c-1.012-1.012-1.563-2.238-1.828-2.828l-.012-.027c-.004-.008-.004-.008-.008-.012a1.162 1.162 0 01.188-1.21c.02-.024.043-.044.062-.067l1.5-1.387-1.672-2.957-.593.18-.012.003a2.46 2.46 0 00-1.484 1.204zm0 0" fill="#f1a22c"/></g></svg>
